<svg height="512" viewBox="0 0 60 60" width="512" xmlns="http://www.w3.org/2000/svg"><g id="012---Cake" fill="none"><g id="Icons" transform="translate(1 1)"><path id="Shape" d="m53 33.83v19.17h-48v-19c0 1.6568542 1.34314575 3 3 3s3-1.3431458 3-3c0 1.6568542 1.3431458 3 3 3s3-1.3431458 3-3c0 1.6568542 1.3431458 3 3 3s3-1.3431458 3-3c0 1.6568542 1.3431458 3 3 3s3-1.3431458 3-3c0 1.6568542 1.3431458 3 3 3s3-1.3431458 3-3c0 1.6568542 1.3431458 3 3 3s3-1.3431458 3-3c0 1.6568542 1.3431458 3 3 3s3-1.3431458 3-3c-.0022492.8352758.3438385 1.6336719.9549782 2.2030568.6111397.5693848 1.4319922.8582 2.2650218.7969432 1.6108345-.1713868 2.8203444-1.5505762 2.78-3.17z" fill="#fec108"/><path id="Shape" d="m50 37v16h-45v-19c0 1.6568542 1.34314575 3 3 3s3-1.3431458 3-3c0 1.6568542 1.3431458 3 3 3s3-1.3431458 3-3c0 1.6568542 1.3431458 3 3 3s3-1.3431458 3-3c0 1.6568542 1.3431458 3 3 3s3-1.3431458 3-3c0 1.6568542 1.3431458 3 3 3s3-1.3431458 3-3c0 1.6568542 1.3431458 3 3 3s3-1.3431458 3-3c0 1.6568542 1.3431458 3 3 3s3-1.3431458 3-3c0 1.6568542 1.3431458 3 3 3z" fill="#ffdc00"/><rect id="Rectangle-path" fill="#0377bc" height="5" rx="2" width="58" y="53"/><rect id="Rectangle-path" fill="#02a9f4" height="5" rx="2" width="54.6" x=".43" y="53"/><g fill="#dfc49c"><path id="Shape" d="m32 15v7h-6v-7c.0029536-.9095785.6192985-1.702609 1.5-1.93.8274663-.1240076 1.6668911-.1475114 2.5-.07 1.1045695 0 2 .8954305 2 2z"/><path id="Shape" d="m21 15v7h-6v-7c.0029536-.9095785.6192985-1.702609 1.5-1.93.8274663-.1240076 1.6668911-.1475114 2.5-.07 1.1045695 0 2 .8954305 2 2z"/><path id="Shape" d="m43 15v7h-6v-7c.0029536-.9095785.6192985-1.702609 1.5-1.93.8274663-.1240076 1.6668911-.1475114 2.5-.07 1.1045695 0 2 .8954305 2 2z"/></g><path id="Shape" d="m29 15v7h-3v-7c.0029536-.9095785.6192985-1.702609 1.5-1.93.8807015.227391 1.4970464 1.0204215 1.5 1.93z" fill="#ffe0b2"/><path id="Shape" d="m18 15v7h-3v-7c.0029536-.9095785.6192985-1.702609 1.5-1.93.8807015.227391 1.4970464 1.0204215 1.5 1.93z" fill="#ffe0b2"/><path id="Shape" d="m40 15v7h-3v-7c.0029536-.9095785.6192985-1.702609 1.5-1.93.8807015.227391 1.4970464 1.0204215 1.5 1.93z" fill="#ffe0b2"/><path id="Shape" d="m53 25v8.83c.0403444 1.6194238-1.1691655 2.9986132-2.78 3.17-.8330296.0612568-1.6538821-.2275584-2.2650218-.7969432-.6111397-.5693849-.9572274-1.367781-.9549782-2.2030568 0 1.6568542-1.3431458 3-3 3s-3-1.3431458-3-3c0 1.6568542-1.3431458 3-3 3s-3-1.3431458-3-3c0 1.6568542-1.3431458 3-3 3s-3-1.3431458-3-3c0 1.6568542-1.3431458 3-3 3s-3-1.3431458-3-3c0 1.6568542-1.3431458 3-3 3s-3-1.3431458-3-3c0 1.0717968-.5717967 2.0621779-1.5 2.5980763-.9282032.5358984-2.0717968.5358984-3 0-.9282033-.5358984-1.5-1.5262795-1.5-2.5980763 0 1.6568542-1.34314575 3-3 3s-3-1.3431458-3-3v-9c0-1.6568542 1.34314575-3 3-3h42c1.6568542 0 3 1.3431458 3 3z" fill="#ef314c"/><path id="Shape" d="m50 22h-3c1.6568542 0 3 1.3431458 3 3v8.83c.0033822 1.1179442-.5715677 2.1581496-1.52 2.75.9531171.5624215 2.1384642.5544321 3.0839134-.0207859.9454493-.575218 1.4974301-1.6242313 1.4360866-2.7292141v-8.83c0-1.6568542-1.3431458-3-3-3z" fill="#bb193b"/><path id="Shape" d="m32 7c0 1.65685425-1.3431458 3-3 3s-3-1.34314575-3-3c0-1.66 1.34-7 3-7s3 5.34 3 7z" fill="#f57c00"/><path id="Shape" d="m21 7c0 1.65685425-1.3431458 3-3 3s-3-1.34314575-3-3c0-1.66 1.34-7 3-7s3 5.34 3 7z" fill="#f57c00"/><path id="Shape" d="m43 7c0 1.65685425-1.3431458 3-3 3s-3-1.34314575-3-3c0-1.66 1.34-7 3-7s3 5.34 3 7z" fill="#f57c00"/><path id="Shape" d="m29 7c.0006876 1.07248401-.5712013 2.06375811-1.5 2.6-.9287987-.53624189-1.5006876-1.52751599-1.5-2.6.1460652-1.93753721.6548932-3.83037721 1.5-5.58.8451068 1.74962279 1.3539348 3.64246279 1.5 5.58z" fill="#ff9801"/><path id="Shape" d="m18 7c.0006876 1.07248401-.5712013 2.06375811-1.5 2.6-.9287987-.53624189-1.5006876-1.52751599-1.5-2.6.1460652-1.93753721.6548932-3.83037721 1.5-5.58.8451068 1.74962279 1.3539348 3.64246279 1.5 5.58z" fill="#ff9801"/><path id="Shape" d="m40 7c.0006876 1.07248401-.5712013 2.06375811-1.5 2.6-.9287987-.53624189-1.5006876-1.52751599-1.5-2.6.1460652-1.93753721.6548932-3.83037721 1.5-5.58.8451068 1.74962279 1.3539348 3.64246279 1.5 5.58z" fill="#ff9801"/></g><g id="Layer_2" fill="#000"><path id="Shape" d="m57 53h-2v-27c0-2.209139-1.790861-4-4-4h-6v-6c0-1.6568542-1.3431458-3-3-3v-1.14c1.7614029-.4547821 2.9940928-2.04084302 3-3.86 0-1.14-1.15-8-4-8s-4 6.86-4 8c.0059072 1.81915698 1.2385971 3.4052179 3 3.86v1.14c-1.6568542 0-3 1.3431458-3 3v6h-3v-6c0-1.6568542-1.3431458-3-3-3v-1.14c1.7614029-.4547821 2.9940928-2.04084302 3-3.86 0-1.14-1.15-8-4-8s-4 6.86-4 8c.0059072 1.81915698 1.2385971 3.4052179 3 3.86v1.14c-1.6568542 0-3 1.3431458-3 3v6h-3v-6c0-1.6568542-1.3431458-3-3-3v-1.14c1.7614029-.4547821 2.9940928-2.04084302 3-3.86 0-1.14-1.15-8-4-8s-4 6.86-4 8c.0059072 1.81915698 1.2385971 3.4052179 3 3.86v1.14c-1.6568542 0-3 1.3431458-3 3v6h-6c-2.209139 0-4 1.790861-4 4v27h-2c-1.65685425 0-3 1.3431458-3 3v1c0 1.6568542 1.34314575 3 3 3h54c1.6568542 0 3-1.3431458 3-3v-1c0-1.6568542-1.3431458-3-3-3zm-18-45c0-1.65 1.21-5.49 2-6 .79.49 2 4.33 2 6 0 1.1045695-.8954305 2-2 2s-2-.8954305-2-2zm-11 0c0-1.65 1.21-5.49 2-6 .79.49 2 4.33 2 6 0 1.1045695-.8954305 2-2 2s-2-.8954305-2-2zm-11 0c0-1.65 1.21-5.49 2-6 .79.49 2 4.33 2 6 0 1.1045695-.8954305 2-2 2s-2-.8954305-2-2zm22 8c0-.5522847.4477153-1 1-1h2c.5522847 0 1 .4477153 1 1v6h-4zm-11 0c0-.5522847.4477153-1 1-1h2c.5522847 0 1 .4477153 1 1v6h-4zm-11 0c0-.5522847.4477153-1 1-1h2c.5522847 0 1 .4477153 1 1v6h-4zm-10 10c0-1.1045695.8954305-2 2-2h42c1.1045695 0 2 .8954305 2 2v8.83c.0345932 1.091965-.7663136 2.031407-1.85 2.17-.555907.041813-1.1040384-.150293-1.5122158-.529993-.4081775-.3796999-.6393545-.912532-.6377842-1.470007 0-.5522847-.4477153-1-1-1s-1 .4477153-1 1c0 1.1045695-.8954305 2-2 2s-2-.8954305-2-2c0-.5522847-.4477153-1-1-1s-1 .4477153-1 1c0 1.1045695-.8954305 2-2 2s-2-.8954305-2-2c0-.5522847-.4477153-1-1-1s-1 .4477153-1 1c0 1.1045695-.8954305 2-2 2s-2-.8954305-2-2c0-.5522847-.4477153-1-1-1s-1 .4477153-1 1c0 1.1045695-.8954305 2-2 2s-2-.8954305-2-2c0-.5522847-.4477153-1-1-1s-1 .4477153-1 1c0 1.1045695-.8954305 2-2 2s-2-.8954305-2-2c0-.5522847-.4477153-1-1-1s-1 .4477153-1 1c0 1.1045695-.8954305 2-2 2s-2-.8954305-2-2c0-.5522847-.4477153-1-1-1s-1 .4477153-1 1c-.0033854.8063114-.4906258 1.5317303-1.23575754 1.8398346-.7451317.3081043-1.60240256.138627-2.17424246-.4298346-.72-.72-.59-1.41-.59-2.94zm0 12.45c1.6470979.9540519 3.738352.6152687 5-.81.7593322.8610017 1.8519977 1.3542487 3 1.3542487s2.2406678-.493247 3-1.3542487c.7593322.8610017 1.8519977 1.3542487 3 1.3542487s2.2406678-.493247 3-1.3542487c.7593322.8610017 1.8519977 1.3542487 3 1.3542487s2.2406678-.493247 3-1.3542487c.7593322.8610017 1.8519977 1.3542487 3 1.3542487s2.2406678-.493247 3-1.3542487c.7593322.8610017 1.8519977 1.3542487 3 1.3542487s2.2406678-.493247 3-1.3542487c.7593322.8610017 1.8519977 1.3542487 3 1.3542487s2.2406678-.493247 3-1.3542487c1.2510256 1.4488899 3.3671039 1.7789981 5 .78v14.58h-46zm51 18.55c0 .5522847-.4477153 1-1 1h-54c-.55228475 0-1-.4477153-1-1v-1c0-.5522847.44771525-1 1-1h54c.5522847 0 1 .4477153 1 1z"/><path id="Shape" d="m10 28h2c.5522847 0 1-.4477153 1-1s-.4477153-1-1-1h-2c-.55228475 0-1 .4477153-1 1s.44771525 1 1 1z"/><path id="Shape" d="m16 28h14c.5522847 0 1-.4477153 1-1s-.4477153-1-1-1h-14c-.5522847 0-1 .4477153-1 1s.4477153 1 1 1z"/></g></g></svg>